# xmcd
#
# Track frame offsets: 
#        150
#        15117
#        29797
#        45387
#        62375
#        76280
#        88107
#        100575
#        113645
#        126180
#        141092
#
# Disc length: 2087 seconds
#
# Revision: 1
# Processed by: cddbd v1.5.2PL0 Copyright (c) Steve Scherf et al.
# Submitted via: ExactAudioCopy v1.3
#
DISCID=7d08250b
DTITLE=Lonnie Johnson - Another Night To Cry
DYEAR=1992
DGENRE=Blues
TTITLE0=Another Night To Cry
TTITLE1=I Got News For You, Baby
TTITLE2=Blues After Hours
TTITLE3=You Didn't Mean What You Said
TTITLE4=Fine Booze And Heavy Dues
TTITLE5=I've Got To Get Rid Of You
TTITLE6=Bow Legged Baby
TTITLE7=Make Love To Me, Baby
TTITLE8=Lots Of Loving
TTITLE9=A Story About Barbara
TTITLE10=Goodbye Kitten
EXTD=
EXTT0=
EXTT1=
EXTT2=
EXTT3=
EXTT4=
EXTT5=
EXTT6=
EXTT7=
EXTT8=
EXTT9=
EXTT10=
PLAYORDER=
